<?xml version="1.0" encoding="UTF-8"?>
<svg version="1.1" xmlns="http://www.w3.org/2000/svg" width="7303" height="7303">
<path d="M0 0 C2.1404598 0.00073045 4.28091917 0.00097641 6.42137909 0.00108671 C50.5005576 0.00454516 94.54568604 0.26997367 138.59508514 2.03002119 C141.93349579 2.16322666 145.27200762 2.29245871 148.61065388 2.41952467 C223.65486743 5.28252219 298.61027882 10.55034752 706.55998993 67.18822432 C707.74878754 67.41747602 708.93758514 67.64672773 710.16240692 67.88292646 C790.51457247 83.38293691 870.30577692 102.02142609 1010.55998993 140.18822432 C1011.59454315 140.48601789 1012.62909637 140.78381147 1013.69499969 141.0906291 C1064.33697231 155.68767315 1114.54773172 171.56789822 1164.55998993 188.18822432 C1165.67263214 188.5579637 1166.78527435 188.92770308 1167.931633 189.30864668 C1252.69112528 217.5091141 1336.34243496 249.25358339 1418.55998993 284.18822432 C1419.28818939 284.49741804 1420.01638885 284.80661177 1420.76665497 285.125175 C1440.09421406 293.33504253 1459.37376376 301.65264348 1478.55998993 310.18822432 C1479.65311493 310.67436201 1480.74623993 311.16049971 1481.87248993 311.66136885 C1536.82888032 336.13413644 1591.10983638 361.94500925 1644.93498993 388.81322432 C1646.28805237 389.48774641 1646.28805237 389.48774641 1647.6684494 390.17589521 C1658.58891292 395.62373073 1669.43809569 401.188199 1680.22405243 406.89769697 C1685.03547126 409.44424572 1689.87113074 411.94152847 1694.71062469 414.43431807 C1705.88048563 420.18872407 1716.96349655 426.07672287 1727.97405243 432.12963057 C1733.02408278 434.90380705 1738.09954196 437.62879119 1743.17913055 440.34838057 C1754.46804568 446.39482716 1765.6644306 452.58091888 1776.79436493 458.91478682 C1781.76209542 461.74160543 1786.74874532 464.53322936 1791.74089813 467.31664228 C1813.0667322 479.21069522 1834.16408267 491.48166553 1855.14665985 503.97019148 C1859.63912763 506.64326437 1864.1378714 509.30561136 1868.63811493 511.96556807 C1882.83293744 520.35987839 1896.98497485 528.80552646 1910.96135712 537.56078291 C1913.80690597 539.34286001 1916.65592301 541.1193101 1919.50530243 542.89525557 C1931.08985426 550.11976328 1942.65421192 557.3757501 1954.18498993 564.68578291 C1956.60884266 566.21912889 1959.03728918 567.74500053 1961.46623993 569.27025557 C1974.30585351 577.35901706 1986.94750131 585.72663369 1999.53704071 594.19750166 C2006.97050495 599.18946165 2014.45437129 604.06833351 2022.08730316 608.75127363 C2027.53448043 612.10818772 2032.70235897 615.79053848 2037.87248993 619.55931807 C2041.98796269 622.52349181 2046.20663451 625.32596436 2050.43498993 628.12572432 C2065.6600705 638.21587046 2080.61523505 648.68877612 2095.55998993 659.18822432 C2096.30426239 659.71061689 2097.04853485 660.23300947 2097.81536102 660.77123213 C2106.60428627 666.94272852 2115.34532403 673.17653924 2124.04314423 679.47582197 C2127.96096973 682.3131757 2131.88607027 685.13903965 2135.82952118 687.94066572 C2144.33468346 693.98341422 2152.72424971 700.17993249 2161.11321259 706.38256025 C2163.49165265 708.13779301 2165.87452586 709.8867978 2168.25920868 711.63353682 C2177.55594538 718.44868222 2186.77128938 725.36066217 2195.92790985 732.363029 C2201.17823253 736.37783841 2206.44921257 740.36197791 2211.74748993 744.31322432 C2224.06376029 753.51327334 2236.13170774 763.04047834 2248.20842743 772.55150557 C2250.45994813 774.32449606 2252.71535757 776.09235186 2254.97405243 777.85619307 C2261.9126935 783.28007421 2268.77804079 788.78497763 2275.60076141 794.3539958 C2279.86269951 797.82693342 2284.16122057 801.24621411 2288.49748993 804.62572432 C2295.99997598 810.47958521 2303.32391404 816.54529 2310.65325165 822.61351728 C2313.19558068 824.71313601 2315.75243901 826.79468943 2318.30998993 828.87572432 C2322.82842709 832.56578133 2327.28226733 836.3274245 2331.72722626 840.1052165 C2335.1201011 842.98426293 2338.54298303 845.82052267 2341.99748993 848.62572432 C2346.85842694 852.58098456 2351.61406553 856.64795902 2356.35955048 860.73998213 C2359.96544939 863.84249062 2363.61193818 866.88280955 2367.30998993 869.87572432 C2371.68794506 873.42801247 2375.87112644 877.14853489 2380.03655243 880.94603682 C2382.61081351 883.23338335 2385.25288482 885.40370702 2387.93498993 887.56322432 C2393.08253542 891.727858 2397.94351381 896.14127573 2402.79827118 900.63744307 C2407.31118133 904.80566135 2411.94357455 908.82351474 2416.63420868 912.78978682 C2423.71767842 918.79454531 2430.60637227 924.95506683 2437.3680954 931.32054853 C2441.03411519 934.77097672 2444.74198918 938.14744181 2448.55608368 941.43431807 C2452.77376893 945.12582036 2456.87224986 948.95248594 2460.9955368 952.74877119 C2463.01717069 954.60887628 2465.04226824 956.46518088 2467.06780243 958.32103682 C2468.57084172 959.69816706 2470.07322543 961.07601024 2471.57561493 962.45384932 C2473.52128836 964.23759413 2475.46960352 966.01830885 2477.41936493 967.79759932 C2485.15074236 974.86031708 2492.79821117 982.00967522 2500.42620087 989.18382978 C2502.6059247 991.23137357 2504.78963802 993.27459247 2506.97405243 995.31713057 C2514.09460709 1001.98428709 2521.16301701 1008.67252999 2527.97014618 1015.66088057 C2529.9870236 1017.62908522 2532.01829703 1019.4588249 2534.1556778 1021.28809309 C2538.83936983 1025.37410889 2543.23075931 1029.7185211 2547.61882782 1034.11766768 C2548.48657333 1034.98366087 2549.35431885 1035.84965406 2550.24835968 1036.74188948 C2552.60553491 1039.09544237 2554.96046961 1041.45119131 2557.31423879 1043.80814767 C2559.79181969 1046.2882814 2562.27186356 1048.76595042 2564.75150299 1051.24402571 C2568.91317791 1055.40388741 2573.07275401 1059.56583903 2577.23113251 1063.7289958 C2582.02123706 1068.52454133 2586.81493309 1073.3164741 2591.61050993 1078.10654682 C2595.74678072 1082.23826226 2599.88107791 1086.37194493 2604.01376718 1090.50724274 C2606.47373859 1092.96876364 2608.93435786 1095.42962671 2611.39676857 1097.88870764 C2614.14424384 1100.63272621 2616.88757552 1103.38086503 2619.63054657 1106.12938643 C2620.83629333 1107.33209684 2620.83629333 1107.33209684 2622.06639862 1108.55910444 C2626.20027706 1112.70841551 2630.1788453 1116.92978814 2633.97950649 1121.38743639 C2636.84166425 1124.64855196 2639.96341433 1127.65191498 2643.05998993 1130.68822432 C2647.53598409 1135.11624192 2651.89454509 1139.55377428 2655.95842743 1144.36791182 C2658.53960051 1147.30163536 2661.35029684 1149.99971609 2664.15373993 1152.71947432 C2666.13360676 1154.75076626 2667.99932155 1156.81311186 2669.85686493 1158.95384932 C2673.56291564 1163.22455582 2677.41783386 1167.33744982 2681.30998993 1171.43822432 C2690.08073074 1180.71911555 2698.7122918 1190.11247479 2707.23967743 1199.61791182 C2709.87078849 1202.53250959 2712.52657295 1205.42356209 2715.18498993 1208.31322432 C2718.78725433 1212.23141187 2722.34129729 1216.18419829 2725.82561493 1220.20775557 C2727.83263531 1222.49955587 2729.88401844 1224.74819184 2731.93498993 1227.00072432 C2735.02635794 1230.42051759 2737.98458024 1233.90780955 2740.87248993 1237.50072432 C2744.28419477 1241.72218807 2747.85296621 1245.72916499 2751.55998993 1249.68822432 C2756.05955705 1254.49371101 2760.29102029 1259.43983148 2764.41545868 1264.57494307 C2766.55873948 1267.18670055 2768.78379323 1269.69187733 2771.05998993 1272.18822432 C2774.88169855 1276.38551465 2778.47473182 1280.72532662 2782.04436493 1285.13744307 C2784.98924148 1288.7087918 2788.01722191 1292.20031223 2791.05998993 1295.68822432 C2795.57802545 1300.87090613 2799.99926007 1306.11297046 2804.32561493 1311.45775557 C2806.82157812 1314.5078924 2809.37546303 1317.50400836 2811.93498993 1320.50072432 C2816.23945214 1325.55039185 2820.36347039 1330.71819162 2824.43450165 1335.95702314 C2827.55105326 1339.95034691 2830.76532342 1343.84093802 2834.05998993 1347.68822432 C2838.27283643 1352.61166245 2842.31972945 1357.6396511 2846.29875946 1362.75340986 C2849.78153192 1367.22188422 2853.34481417 1371.61826715 2856.93498993 1376.00072432 C2861.98476124 1382.17491138 2866.85957604 1388.46356192 2871.67571259 1394.82103682 C2875.45806768 1399.79571802 2879.34819505 1404.66804006 2883.30998993 1409.50072432 C2887.67493391 1414.83081375 2891.90953313 1420.22375891 2896.00920868 1425.76244307 C2899.35280315 1430.27429798 2902.77585894 1434.72583958 2906.18498993 1439.18822432 C2922.74098825 1460.8899797 2939.00419359 1482.80127283 2954.95110321 1504.9543376 C2957.10856043 1507.94989656 2959.27011175 1510.94248785 2961.43206024 1513.93480635 C2962.51902942 1515.43941425 2963.60561685 1516.94429801 2964.69182587 1518.44945478 C2967.35657592 1522.14162644 2970.02552327 1525.83059386 2972.70452118 1529.51244307 C2980.80538249 1540.66006076 2988.69339979 1551.94755503 2996.53801727 1563.27660322 C2998.47040593 1566.05922422 3000.41330039 1568.83411298 3002.36077118 1571.60619307 C3012.51799511 1586.08405641 3022.34249059 1600.77191393 3032.12110138 1615.5065074 C3035.68660478 1620.87791754 3039.2633371 1626.24173816 3042.84514618 1631.60228682 C3057.4355876 1653.44156429 3071.8375749 1675.37993191 3085.89739227 1697.56566572 C3087.44551156 1700.00764772 3088.99657588 1702.44773249 3090.54827118 1704.88744307 C3123.87811878 1757.37548067 3155.3595271 1811.03668557 3185.8759079 1865.19945478 C3187.00695148 1867.2067374 3188.13879916 1869.21356712 3189.27141571 1871.2199626 C3197.07167646 1885.04379474 3204.70585382 1898.9464664 3212.20061493 1912.93822432 C3214.76821768 1917.72795989 3217.3714868 1922.49652372 3219.99358368 1927.25658369 C3226.05858946 1938.27714297 3231.86475049 1949.42139934 3237.6024704 1960.61473799 C3238.23669877 1961.85149813 3238.87097661 1963.0882329 3239.50530243 1964.32494307 C3239.99458473 1965.27954924 3239.99458473 1965.27954924 3240.49375153 1966.25344038 C3242.17934286 1969.53367415 3243.88124189 1972.80377925 3245.61638641 1976.05809736 C3253.9736914 1991.74538391 3261.88797179 2007.65683045 3269.83562469 2023.55419111 C3271.51873472 2026.92049215 3273.20463053 2030.28537291 3274.89324188 2033.64891768 C3284.63349653 2053.05173702 3294.16995405 2072.50685031 3303.20656586 2092.24837446 C3305.20453103 2096.58826891 3307.25184636 2100.90395634 3309.30998993 2105.21556807 C3309.66473389 2105.95950819 3310.01947784 2106.70344831 3310.38497162 2107.46993208 C3311.08583419 2108.93931008 3311.78690263 2110.4085899 3312.48818207 2111.87776899 C3319.79269158 2127.19787592 3326.89964583 2142.58951937 3333.75774384 2158.11547041 C3335.42002158 2161.87659895 3337.09424565 2165.63233953 3338.76943207 2169.38773298 C3370.48077639 2240.50202496 3399.53046294 2312.70007779 3426.63115692 2385.69005537 C3427.60542921 2388.31043682 3428.58282536 2390.92963627 3429.56096649 2393.54857588 C3431.22776774 2398.01163471 3432.88943296 2402.47657191 3434.54714203 2406.94301558 C3435.17550734 2408.63415988 3435.80538536 2410.32474297 3436.4368515 2412.01473188 C3437.30421379 2414.33777738 3438.16534257 2416.66303847 3439.02483368 2418.98900557 C3439.28338135 2419.67757643 3439.54192902 2420.36614729 3439.80831146 2421.07558393 C3440.85775534 2423.93326956 3441.55998993 2426.11589352 3441.55998993 2429.18822432 C3360.0466452 2429.24873047 3278.53329874 2429.30669628 3197.01995087 2429.36278486 C3195.82351442 2429.36360835 3195.82351442 2429.36360835 3194.60290753 2429.36444847 C3108.7652585 2429.42352348 3022.92760771 2429.48016164 2682.40390301 2429.65285334 C2679.56108609 2429.65399981 2676.71826917 2429.65514862 2673.87545225 2429.65629819 C2593.32323826 2429.68886739 2512.77102359 2429.7193027 2432.21880773 2429.74688052 C2429.23748559 2429.74790121 2426.25616344 2429.74892203 2423.27484129 2429.74994294 C2422.29016293 2429.7502801 2421.30548456 2429.75061726 2420.29096746 2429.75096463 C2383.26555635 2429.76364808 2346.24014541 2429.77681911 2309.21473457 2429.79028117 C2305.19184608 2429.79174338 2301.16895758 2429.79320003 2297.14606908 2429.79465163 C2202.17746342 2429.82892397 2107.20887341 2429.87196634 2012.24028778 2429.94353437 C2011.24055119 2429.94428716 2010.2408146 2429.94503994 2009.21078296 2429.94581553 C1975.96467346 2429.97086303 1942.71856463 2429.99676144 1909.47245587 2430.02277716 C1879.43339572 2430.04628071 1849.39433536 2430.06947876 1819.3552742 2430.09166956 C1818.36848765 2430.09239865 1817.38170111 2430.09312775 1816.36501193 2430.09387894 C1754.57442861 2430.1394536 1692.78384899 2430.17179686 1630.9932518 2430.19076204 C1629.56193874 2430.19120397 1629.56193874 2430.19120397 1628.10171027 2430.19165483 C1586.19686841 2430.20458286 1544.29202637 2430.21475062 1502.38718311 2430.22176121 C1485.52906248 2430.22459431 1468.67094192 2430.22783635 1451.81282141 2430.23130233 C1449.01759858 2430.23187361 1446.22237574 2430.23243163 1443.42715291 2430.23298823 C1400.65797808 2430.24159945 1357.88883179 2430.25934602 1315.11967754 2430.30355763 C1314.19696229 2430.30451133 1313.27424703 2430.30546503 1312.3235707 2430.30644762 C1297.47988016 2430.32184556 1282.63619044 2430.33800379 1267.79250084 2430.35429316 C1225.66214379 2430.40052642 1183.53181647 2430.44165516 1141.40143061 2430.4436847 C1140.54688925 2430.44372842 1139.69234789 2430.44377214 1138.81191133 2430.44381718 C1120.17022249 2430.44466186 1101.52853526 2430.4425036 1082.88684714 2430.43740516 C1075.4524083 2430.43542038 1068.01796939 2430.43384712 1060.58353043 2430.43240881 C1059.36705764 2430.43215742 1059.36705764 2430.43215742 1058.12600964 2430.43190095 C1032.38788772 2430.42677981 1006.64995266 2430.45557286 980.91187971 2430.50392034 C955.57486151 2430.55137798 930.23807499 2430.5656098 904.90102772 2430.53121606 C901.4325294 2430.52651336 897.96403069 2430.52219668 894.49553159 2430.51811216 C893.81649097 2430.51729784 893.13745035 2430.51648353 892.43783274 2430.51564454 C881.07290802 2430.50308223 869.70853262 2430.53392698 858.34367846 2430.57661133 C848.51405445 2430.61054946 838.68497829 2430.6049542 828.85537173 2430.56653611 C823.27418332 2430.54585068 817.69448249 2430.54255496 812.11340594 2430.58781201 C807.04965525 2430.62855659 801.98862203 2430.61871719 796.92497968 2430.5684632 C795.10880812 2430.55928126 793.29242524 2430.56848089 791.47647794 2430.59846158 C782.27835436 2430.74030376 775.5895356 2430.51804693 768.73437418 2423.8801816 C766.99497768 2421.99623985 765.26928208 2420.09952152 763.55998993 2418.18822432 C761.79676714 2416.67526401 760.00882547 2415.19003922 758.18498993 2413.75072432 C753.96313676 2410.35264737 749.84250849 2406.86133643 745.74748993 2403.31322432 C740.58838454 2398.85814531 735.32529754 2394.57545223 729.94036102 2390.39696455 C726.19540871 2387.48761571 722.50902265 2384.5184648 718.84929657 2381.50267744 C710.12140036 2374.31943669 701.1062759 2367.59236908 691.96575165 2360.94554853 C689.61397597 2359.22765922 687.27444366 2357.49450175 684.93889618 2355.75463057 C619.13890717 2306.77065909 547.86414855 2265.25443334 327.55998993 2173.18822432 C326.88143951 2172.97099714 326.2028891 2172.75376997 325.50377655 2172.52996016 C237.816528 2144.5460286 146.50427114 2127.18563341 43.24748993 2119.43822432 C41.95385529 2119.34933943 41.95385529 2119.34933943 40.63408661 2119.25865889 C14.66010487 2117.50705607 -11.29073401 2116.98027329 -37.31501007 2117.00072432 C-38.07968849 2117.00099119 -38.84436691 2117.00125807 -39.63221741 2117.00153303 C-65.61419361 2117.0128758 -91.50962081 2117.41672803 -117.44001007 2119.18822432 C-118.34988678 2119.24903181 -119.25976349 2119.30983931 -120.19721222 2119.37248945 C-216.61669833 2125.85942099 -312.21507052 2143.2262971 -404.44001007 2172.18822432 C-405.22964142 2172.43509993 -406.01927277 2172.68197554 -406.83283234 2172.93633223 C-482.32783143 2196.55156833 -556.28330695 2227.14916027 -625.49860382 2265.55931807 C-628.64058371 2267.29929896 -631.78994677 2269.02542463 -634.94001007 2270.75072432 C-646.21586144 2276.94556754 -657.40507612 2283.25991845 -668.44001007 2289.87572432 C-669.3685379 2290.43235762 -670.29706573 2290.98899092 -671.25373077 2291.56249189 C-687.05144309 2301.11520321 -702.53585796 2311.14092256 -717.88385773 2321.39720869 C-720.5682504 2323.19038887 -723.2559162 2324.97858256 -725.94391632 2326.76634932 C-740.13916402 2336.22584637 -754.15855308 2345.92257151 -767.87751007 2356.06322432 C-768.65699005 2356.63854902 -769.43647003 2357.21387373 -770.23957062 2357.80663252 C-778.05690569 2363.6029887 -785.73959567 2369.56761025 -793.39118195 2375.58031416 C-795.28366483 2377.06552535 -797.1809972 2378.5442139 -799.08063507 2380.02025557 C-811.50470149 2389.69258883 -823.64609038 2399.71083436 -835.55768585 2410.00707197 C-838.92299863 2412.9108783 -842.33944325 2415.72854602 -845.81501007 2418.50072432 C-851.32979437 2422.96974211 -856.46823716 2427.80704564 -861.60749054 2432.69725752 C-862.24702667 2433.30529219 -862.88656281 2433.91332685 -863.54547882 2434.53978682 C-864.10388458 2435.07426435 -864.66229034 2435.60874189 -865.23761749 2436.15941572 C-867.21209158 2437.97826947 -869.21777811 2439.74706713 -871.24225616 2441.50975752 C-885.2560457 2453.73720781 -898.35931154 2466.947012 -911.48859406 2480.10643721 C-914.01968731 2482.64328902 -916.55533257 2485.17553655 -919.09227085 2487.70654154 C-921.08025325 2489.69088871 -923.06582161 2491.67763775 -925.05069542 2493.6650939 C-926.43124683 2495.04661764 -927.81377791 2496.42616221 -929.19637299 2497.8056407 C-933.62618636 2502.25190566 -937.91345229 2506.75785922 -942.00402069 2511.51865339 C-943.64528762 2513.42689281 -945.34819161 2515.26458944 -947.08844757 2517.08275557 C-947.69656281 2517.72245283 -948.30467804 2518.3621501 -948.93122101 2519.02123213 C-949.5528714 2519.67446455 -950.17452179 2520.32769697 -950.81501007 2521.00072432 C-955.87705333 2526.35542858 -960.67740004 2531.78329292 -965.26813507 2537.54759932 C-967.72045255 2540.52919395 -970.31108148 2543.36362517 -972.94001007 2546.18822432 C-977.11963567 2550.69085035 -981.09172821 2555.31232867 -984.94391632 2560.09838057 C-986.8309903 2562.43433599 -988.73341735 2564.75191129 -990.65485382 2567.05931807 C-997.69262363 2575.51924834 -1004.51626132 2584.10244217 -1011.15876007 2592.87572432 C-1013.95840939 2596.57045383 -1016.80788806 2600.22354656 -1019.67047882 2603.8696208 C-1027.19207968 2613.45945434 -1034.39013005 2623.24766054 -1041.44001007 2633.18822432 C-1042.2349588 2634.30342451 -1042.2349588 2634.30342451 -1043.0459671 2635.441154 C-1072.00047463 2676.10514072 -1098.42453621 2718.43224504 -1122.44001007 2762.18822432 C-1122.9783548 2763.1619499 -1123.51669952 2764.13567549 -1124.07135773 2765.13890791 C-1141.14003348 2796.05585055 -1156.68574586 2827.72831155 -1170.68952179 2860.14476728 C-1172.2975415 2863.86668196 -1173.93107714 2867.57698087 -1175.56891632 2871.28588057 C-1193.58255888 2912.33657153 -1208.46468105 2954.73602539 -1221.78376007 2997.51634932 C-1221.9791185 2998.14224455 -1222.17447693 2998.76813978 -1222.37575531 2999.41300154 C-1224.81923319 3007.31259423 -1227.10633796 3015.25373915 -1229.44001007 3023.18822432 C363.79998993 3023.18822432 1957.03998993 3023.18822432 3598.55998993 3023.18822432 C3607.0533069 3074.14812617 3615.40676934 3125.03491761 3622.55998993 3176.18822432 C3622.70084393 3177.19350046 3622.70084393 3177.19350046 3622.84454346 3178.21908522 C3634.91483904 3264.38394975 3643.70162775 3351.02711126 3656.09221649 3602.91405439 C3656.13279057 3605.87825292 3656.17675431 3608.84239752 3656.22063828 3611.8065486 C3657.48029403 3697.27892919 3655.11408514 3782.78241993 3560.55998993 4487.18822432 C3560.2819754 4488.36969038 3560.00396088 4489.55115644 3559.71752167 4490.76842451 C3538.85346607 4579.30670517 3514.80005703 4666.8844399 3467.21331024 4815.28588057 C3466.04093765 4818.75815929 3464.87448116 4822.23236799 3463.71135712 4825.70775557 C3442.04912378 4890.41486178 3418.25782866 4954.36406459 3392.61089325 5017.59612226 C3391.59194955 5020.10939442 3390.57520223 5022.62354426 3389.55901337 5025.13793135 C3358.6076849 5101.66296987 3324.64917192 5176.93084602 3288.50193024 5251.13341475 C3286.17859621 5255.90645525 3283.87331916 5260.68795607 3281.57561493 5265.47338057 C3275.97285086 5277.13387704 3270.37558178 5288.77759857 3264.26555634 5300.18382978 C3260.73489146 5306.78869604 3257.39239871 5313.48148664 3254.05998993 5320.18822432 C3248.70926571 5330.93841416 3243.22142478 5341.59881198 3237.55998993 5352.18822432 C3236.73676239 5353.73002363 3236.73676239 5353.73002363 3235.89690399 5355.30297041 C3232.422447 5361.80743322 3228.93980466 5368.30743856 3225.45024872 5374.80380964 C3223.27641375 5378.8513265 3221.10847046 5382.90195428 3218.94280243 5386.95384932 C3212.9287085 5398.18893323 3206.82540207 5409.36208709 3200.52214813 5420.43773603 C3196.97924002 5426.66414718 3193.48698935 5432.91630313 3190.02263641 5439.18675947 C3183.53301762 5450.9319439 3176.89455018 5462.57464655 3170.09905243 5474.14525557 C3166.98683296 5479.44610732 3163.9158444 5484.76984439 3160.85344696 5490.09960127 C3153.89200656 5502.21435025 3146.80393427 5514.24058496 3139.55998993 5526.18822432 C3138.92867157 5527.23172041 3138.29735321 5528.2752165 3137.64690399 5529.35033369 C3123.98066783 5551.93839976 3110.26313939 5574.49753267 3096.0946579 5596.77513838 C3094.42620792 5599.39858089 3092.76065918 5602.02385387 3091.09514618 5604.64916182 C3089.8961019 5606.53729346 3088.69688615 5608.42531622 3087.49748993 5610.31322432 C3086.96816864 5611.14692549 3086.43884735 5611.98062666 3085.89348602 5612.8395915 C3075.93410325 5628.4921961 3065.76886072 5644.0100866 3055.55998993 5659.50072432 C3054.92780548 5660.46022993 3054.29562103 5661.41973555 3053.64427948 5662.40831709 C3043.08437742 5678.42865431 3032.40942581 5694.36266672 3021.55998993 5710.18822432 C3020.54816416 5711.66861993 3019.53643405 5713.14908092 3018.52483368 5714.62963057 C3003.03463326 5737.26230255 2987.28911503 5759.71822031 2971.19670868 5781.92650557 C2969.57489929 5784.16762165 2967.95733861 5786.41173746 2966.34123993 5788.65697432 C2959.65124054 5797.94818854 2952.90033136 5807.19198054 2946.09514618 5816.39916182 C2943.74010238 5819.58558873 2941.39421265 5822.77842882 2939.05608368 5825.97728682 C2932.72196169 5834.63265272 2926.28319028 5843.18609021 2919.66936493 5851.62987471 C2915.90584301 5856.43922958 2912.20781797 5861.2906324 2908.55998993 5866.18822432 C2902.60164708 5874.17998563 2896.48511721 5882.04340837 2890.34661102 5889.89720869 C2888.56439611 5892.1825742 2886.78955105 5894.47346616 2885.01702118 5896.76634932 C2878.85307857 5904.73397711 2872.61953887 5912.63192828 2866.24333954 5920.4309001 C2862.80005754 5924.64641381 2859.40950235 5928.89789923 2856.05998993 5933.18822432 C2850.00156861 5940.94304801 2843.78734884 5948.56881937 2837.55998993 5956.18822432 C2836.7324118 5957.20142744 2835.90483368 5958.21463057 2835.05217743 5959.25853682 C2833.5896871 5961.04715739 2832.12619238 5962.83495732 2830.66155243 5964.62181807 C2829.23682828 5966.36167637 2827.81504284 5968.10394448 2826.39592743 5969.84838057 C2821.87220292 5975.40313063 2817.28328868 5980.89574848 2812.64421844 5986.3539958 C2809.76478725 5989.74737811 2806.92809266 5993.17072349 2804.12248993 5996.62572432 C2799.7061957 6002.04965787 2795.15756784 6007.35235314 2790.59514618 6012.65306807 C2787.7503494 6015.96011046 2784.93357528 6019.29002598 2782.12248993 6022.62572432 C2777.61747026 6027.96539934 2773.05497398 6033.25325929 2768.4708786 6038.52513838 C2765.27265394 6042.20487222 2762.09524071 6045.90096431 2758.93547821 6049.61376143 C2753.75195812 6055.70056007 2748.44462059 6061.64666956 2743.01702118 6067.51634932 C2740.39468732 6070.36798104 2737.84010674 6073.26952503 2735.30217743 6076.19603682 C2732.48535731 6079.41706431 2729.60688847 6082.58240068 2726.73967743 6085.75853682 C2724.86853899 6087.84428612 2723.02074162 6089.9464006 2721.18498993 6092.06322432 C2717.7731648 6095.98050502 2714.26279905 6099.80495069 2710.74578094 6103.6274333 C2707.8506029 6106.77535324 2704.97645667 6109.94026235 2702.12248993 6113.12572432 C2697.16824048 6118.64415875 2692.1330314 6124.08614193 2687.09514618 6129.52806807 C2685.61244593 6131.13149709 2684.13253157 6132.73744058 2682.65373993 6134.34447432 C2677.04282255 6140.44029746 2671.40642518 6146.51193996 2665.74748993 6152.56322432 C2664.83229584 6153.54416059 2664.83229584 6153.54416059 2663.89861298 6154.54491377 C2660.99886949 6157.64020759 2658.07057361 6160.68879997 2655.04827118 6163.66478682 C2652.64538445 6166.04591736 2650.38872829 6168.49690168 2648.18498993 6171.06322432 C2643.49641738 6176.49485189 2638.34496874 6181.44997334 2633.23186493 6186.47728682 C2632.47389618 6187.22752119 2631.71592743 6187.97775557 2630.93498993 6188.75072432 C2630.2620993 6189.41201338 2629.58920868 6190.07330244 2628.89592743 6190.75463057 C2626.97743005 6192.75333268 2625.16859825 6194.78463162 2623.36307526 6196.88315535 C2619.84576147 6200.91244739 2616.16167728 6204.72817383 2612.37468719 6208.50292158 C2611.69401184 6209.18534925 2611.01333649 6209.86777693 2610.31203461 6210.57088423 C2608.08597792 6212.8013025 2605.85633023 6215.02808932 2603.62639618 6217.25463057 C2602.06358244 6218.81811898 2600.50091708 6220.38175573 2598.93839264 6221.94553328 C2595.67284867 6225.21254651 2592.40551594 6228.47775723 2589.13689423 6231.74169111 C2584.96318252 6235.90970603 2580.79397688 6240.08219481 2576.62610722 6244.25605059 C2573.40302502 6247.48275924 2570.17754887 6250.70706639 2566.9513607 6253.93066931 C2565.4137568 6255.46760971 2563.87688546 6257.00528339 2562.34078407 6258.54372549 C2560.18783989 6260.69923054 2558.03167926 6262.85146818 2555.87468719 6265.00292158 C2555.25054428 6265.62908873 2554.62640137 6266.25525587 2553.98334503 6266.90039778 C2550.21333103 6270.65264306 2546.32274501 6274.21219997 2542.29048824 6277.68146372 C2540.13996057 6279.5539477 2538.12082202 6281.52983377 2536.12248993 6283.56322432 C2534.99713837 6284.70017744 2534.99713837 6284.70017744 2533.84905243 6285.86009932 C2533.0936618 6286.62838057 2532.33827118 6287.39666182 2531.55998993 6288.18822432 C2526.63308227 6293.1992089 2521.66804551 6298.0522914 2516.33733368 6302.63353682 C2513.96326363 6304.71019589 2511.75973726 6306.92902436 2509.55998993 6309.18822432 C2505.97509381 6312.81703953 2502.29705393 6316.22885291 2498.42327118 6319.54369307 C2495.97805054 6321.70184378 2493.71782067 6324.01774489 2491.43474579 6326.34471846 C2489.62392645 6328.12535354 2487.75854413 6329.79038728 2485.83342743 6331.44603682 C2481.68604419 6335.05187668 2477.67675364 6338.78680833 2473.68498993 6342.56322432 C2468.50661525 6347.44050292 2463.29789883 6352.27224499 2457.98967743 6357.00853682 C2455.11605754 6359.58647877 2452.2754105 6362.19883659 2449.43498993 6364.81322432 C2445.52034122 6368.41243391 2441.56970775 6371.9619545 2437.55217743 6375.44603682 C2435.19978358 6377.5032283 2432.87964027 6379.59419346 2430.55998993 6381.68822432 C2425.19982182 6386.52049708 2419.78989419 6391.28641288 2414.30217743 6395.97338057 C2413.09642317 6397.0032991 2411.8906947 6398.03324784 2410.68498993 6399.06322432 C2410.07647186 6399.58287764 2409.4679538 6400.10253096 2408.84099579 6400.63793135 C2405.30375135 6403.66714964 2401.81606416 6406.73971015 2398.37248993 6409.87572432 C2394.1329095 6413.72673436 2389.73066881 6417.33666387 2385.27873993 6420.93822432 C2382.63851263 6423.12324001 2380.09269273 6425.37993822 2377.55998993 6427.68822432 C2373.36269959 6431.50993294 2369.02288762 6435.10296621 2364.61077118 6438.67259932 C2361.03941764 6441.61747983 2357.54801099 6444.64557581 2354.05998993 6447.68822432 C2348.95562741 6452.13519234 2343.80386282 6456.50273268 2338.54436493 6460.76634932 C2334.82571718 6463.78410011 2331.13033174 6466.82951354 2327.43498993 6469.87572432 C2326.71287323 6470.47030439 2325.99075653 6471.06488447 2325.24675751 6471.67748213 C2321.55432305 6474.718071 2317.86504769 6477.76237713 2314.18108368 6480.81322432 C2307.11745214 6486.65717289 2300.02348204 6492.44614248 2292.79094696 6498.08007002 C2288.39178931 6501.51311605 2284.06469602 6505.02790755 2279.74748993 6508.56322432 C2273.54677758 6513.63325391 2267.23531379 6518.53554042 2260.85466766 6523.37645674 C2256.11798057 6526.97668694 2251.44424182 6530.64469274 2246.80998993 6534.37572432 C2240.13479181 6539.74586617 2233.37421623 6544.99594195 2226.55998993 6550.18822432 C2225.43512177 6551.04625654 2225.43512177 6551.04625654 2224.28752899 6551.92162275 C2219.89987037 6555.26831848 2215.51017239 6558.61231252 2211.11858368 6561.95384932 C2207.41826822 6564.77028376 2203.72333974 6567.59356919 2200.03264618 6570.42259932 C2192.03109994 6576.5504657 2184.03180497 6582.65959619 2175.79558563 6588.46971846 C2170.91723116 6591.913389 2166.1109113 6595.45007805 2161.30998993 6599.00072432 C2152.84684686 6605.25513356 2144.33076202 6611.43223265 2135.78948212 6617.5793376 C2133.55502429 6619.19180771 2131.32629104 6620.81189414 2129.09905243 6622.43431807 C2120.71780723 6628.5315161 2112.25785422 6634.48316676 2103.68108368 6640.30223799 C2097.38142142 6644.58986791 2091.18993427 6649.01333582 2085.04827118 6653.52416182 C2080.09860956 6657.14194884 2075.03831573 6660.56402827 2069.92742157 6663.94969893 C2066.23504125 6666.39811675 2062.566728 6668.88154381 2058.89983368 6671.36791182 C2058.22807098 6671.82320768 2057.55630829 6672.27850355 2056.86418915 6672.74759626 C2055.46479556 6673.69611456 2054.06545372 6674.6447092 2052.66616058 6675.59337568 C2031.4278672 6689.98794336 2010.16744211 6704.35131822 1988.55998993 6718.18822432 C1986.58601202 6719.45512089 1984.61205529 6720.72205048 1982.63811493 6721.98900557 C1969.97854143 6730.10813988 1957.2953488 6738.1884769 1944.55998993 6746.18822432 C1943.64427216 6746.76395185 1942.72855438 6747.33967939 1941.78508759 6747.93285322 C1928.14134418 6756.50547076 1914.43301921 6764.96342043 1900.65129852 6773.31224775 C1897.34273719 6775.32006526 1894.03892137 6777.33558792 1890.73577118 6779.35228682 C1875.78000596 6788.47741705 1860.73430244 6797.42986347 1845.55998993 6806.18822432 C1844.51101532 6806.79376143 1843.46204071 6807.39929853 1842.38127899 6808.02318525 C1838.01353005 6810.5435955 1833.64550292 6813.06350578 1829.27483368 6815.57884932 C1823.97969527 6818.62814049 1818.69319593 6821.69043617 1813.42717743 6824.78978682 C1802.55265136 6831.18776096 1791.61171521 6837.40068768 1780.49138641 6843.36229658 C1773.60195701 6847.06066678 1766.787265 6850.87283372 1759.99748993 6854.75072432 C1751.45606128 6859.61904713 1742.81529857 6864.24812568 1734.07927704 6868.75682783 C1727.85204161 6871.97509835 1721.69323713 6875.29490159 1715.55998993 6878.68822432 C1701.23930923 6886.57588005 1686.63253846 6893.91996979 1672.07015228 6901.34769392 C1666.58155784 6904.14925361 1661.10383675 6906.97092556 1655.63420868 6909.80931807 C1635.59315407 6920.20125916 1615.38221817 6930.20236943 1595.05217743 6940.01634932 C1590.96607423 6941.98979098 1586.88711259 6943.97756287 1582.80998993 6945.96947432 C1568.89332427 6952.7583677 1554.87979184 6959.29132751 1540.76750946 6965.66063643 C1533.27931938 6969.04047559 1525.81211761 6972.45683355 1518.37419891 6975.9465251 C1457.84526808 7004.33158393 1395.84616068 7029.93677674 1333.55998993 7054.18822432 C1332.64084808 7054.54638227 1331.72170624 7054.90454023 1330.77471161 7055.27355146 C1285.58617753 7072.87063976 1240.02286412 7089.48915261 1194.17443085 7105.28636885 C1191.43769119 7106.23041146 1188.70213708 7107.17783304 1185.96672821 7108.12572432 C1083.9918197 7143.4305788 980.15096236 7173.15131904 -1224.52985382 7091.23314619 C-1227.37834877 7090.21036445 -1230.22749146 7089.1894045 -1233.07672882 7088.16869307 C-1296.57348895 7065.40042469 -1359.39248689 7040.65276394 -1421.44001007 7014.18822432 C-1422.23290436 7013.8502281 -1423.02579865 7013.51223188 -1423.84272003 7013.16399336 C-1448.1673557 7002.78752856 -1472.34296308 6992.0819699 -1496.44001007 6981.18822432 C-1497.18573273 6980.85113447 -1497.93145538 6980.51404463 -1498.6997757 6980.16673994 C-1515.71555115 6972.47019059 -1532.67317211 6964.65319936 -1549.56501007 6956.68822432 C-1550.22656097 6956.37675459 -1550.88811188 6956.06528486 -1551.56970978 6955.74437666 C-1578.77824069 6942.92113386 -1605.75316323 6929.61674509 -1632.6475296 6916.1496501 C-1636.57310884 6914.18397796 -1640.50053177 6912.22201993 -1644.4284029 6910.26093245 C-1660.18283934 6902.39342913 -1675.91914773 6894.51017934 -1691.44001007 6886.18822432 C-1692.65206156 6885.54220071 -1693.86429581 6884.89651987 -1695.07672882 6884.2512126 C-1698.38824448 6882.48560523 -1701.6961263 6880.7134207 -1705.00251007 6878.93822432 C-1706.19350303 6878.29905225 -1707.38450255 6877.65989242 -1708.57550812 6877.02074385 C-1710.403101 6876.03984302 -1712.23060796 6875.05878346 -1714.05788422 6874.07729292 C-1718.10460718 6871.90379692 -1722.15449836 6869.73629954 -1726.20563507 6867.57103682 C-1737.39478877 6861.58147056 -1748.52036221 6855.50139443 -1759.54889679 6849.22069502 C-1766.66739006 6845.1715264 -1773.83232583 6841.21163106 -1781.01270294 6837.27382612 C-1792.61136018 6830.91037599 -1804.09555734 6824.38228117 -1815.49860382 6817.67259932 C-1820.62551673 6814.65646816 -1825.7807276 6811.69219134 -1830.94269562 6808.73656416 C-1844.85814484 6800.76246041 -1858.57043706 6792.48528757 -1872.25592804 6784.1262126 C-1876.78150235 6781.37172641 -1881.3285144 6778.65378447 -1885.87751007 6775.93822432 C-1896.13567043 6769.80162768 -1906.29490713 6763.50952726 -1916.44001007 6757.18822432 C-1917.87932892 6756.29248701 -1917.87932892 6756.29248701 -1919.34772491 6755.378654 C-1930.15598499 6748.65028623 -1940.94466416 6741.89169029 -1951.69001007 6735.06322432 C-1952.47883575 6734.5625041 -1953.26766144 6734.06178389 -1954.08039093 6733.54589033 C-1970.93629892 6722.80774003 -1987.62758452 6711.81052199 -2004.31501007 6700.81322432 C-2005.27669098 6700.17958967 -2006.23837189 6699.54595503 -2007.22919464 6698.89311934 C-2020.33909611 6690.25167313 -2033.41637678 6681.57255539 -2046.33307648 6672.64379072 C-2048.37943024 6671.23007564 -2050.43027816 6669.82317246 -2052.48297882 6668.41869307 C-2074.56536799 6653.3004326 -2096.49984374 6637.96772117 -2118.17438507 6622.27025557 C-2121.34249343 6619.97739709 -2124.52146 6617.70075639 -2127.70954132 6615.43578291 C-2136.2147036 6609.39303441 -2144.60426985 6603.19651614 -2152.99323273 6596.99388838 C-2155.37167279 6595.23865562 -2157.754546 6593.48965083 -2160.13922882 6591.74291182 C-2170.40950826 6584.21402017 -2180.57028873 6576.55219681 -2190.68610382 6568.81713057 C-2194.42192893 6565.96118576 -2198.17272892 6563.12751735 -2201.94001007 6560.31322432 C-2207.60329519 6556.07981828 -2213.20650595 6551.77050184 -2218.80329132 6547.44994307 C-2220.41977803 6546.20382086 -2222.03878683 6544.96105965 -2223.65876007 6543.71947432 C-2231.04342132 6538.0576016 -2238.37435094 6532.33052449 -2245.68268585 6526.57054853 C-2247.41021909 6525.21165812 -2249.14126472 6523.85738723 -2250.87360382 6522.50463057 C-2257.80308716 6517.08853929 -2264.65952643 6511.59164458 -2271.47199249 6506.02904463 C-2275.81715777 6502.48733293 -2280.20434419 6499.00683345 -2284.62751007 6495.56322432 C-2289.80177669 6491.53025391 -2294.8398606 6487.36286186 -2299.82746124 6483.10179853 C-2302.98777597 6480.40482914 -2306.18306734 6477.76751283 -2309.44001007 6475.18822432 C-2313.89254708 6471.65939029 -2318.22686986 6468.00593102 -2322.55329132 6464.32494307 C-2325.98572616 6461.40817919 -2329.44593822 6458.53129006 -2332.94001007 6455.68822432 C-2338.61904148 6451.06269439 -2344.20593829 6446.33355387 -2349.78717804 6441.59105635 C-2351.41029074 6440.21344843 -2353.03594047 6438.83890674 -2354.66266632 6437.46556807 C-2370.34813987 6424.22260135 -2386.03522602 6410.94956077 -2401.24860382 6397.16478682 C-2403.29539803 6395.3186587 -2405.36132564 6393.49829148 -2407.44001007 6391.68822432 C-2411.33513818 6388.29569338 -2415.1678377 6384.83628231 -2419.00251007 6381.37572432 C-2421.13418488 6379.46268282 -2423.28020117 6377.56934819 -2425.44001007 6375.68822432 C-2430.15705472 6371.57738621 -2434.79501136 6367.38005242 -2439.44001007 6363.18822432 C-2440.24438507 6362.46634932 -2441.04876007 6361.74447432 -2441.87751007 6361.00072432 C-2447.92999779 6355.56900457 -2453.93261668 6350.08440847 -2459.9209671 6344.58226728 C-2461.39290923 6343.23144929 -2462.86758743 6341.88361459 -2464.34235382 6340.53588057 C-2471.12124033 6334.33934135 -2477.85017476 6328.09135929 -2484.55719757 6321.81713057 C-2487.18251202 6319.36129844 -2489.81303863 6316.91123735 -2492.44782257 6314.46556807 C-2498.24753343 6309.07756949 -2504.01463483 6303.68932022 -2509.55890656 6298.03636885 C-2511.32694776 6296.29930565 -2513.14800006 6294.69315856 -2515.03766632 6293.09056807 C-2521.00792163 6287.90086403 -2526.47018049 6282.20305132 -2532.01813507 6276.57103682 C-2532.85860382 6275.72283369 -2533.69907257 6274.87463057 -2534.56501007 6274.00072432 C-2535.3100882 6273.24404463 -2536.05516632 6272.48736494 -2536.82282257 6271.70775557 C-2538.80204118 6269.80238839 -2540.78959032 6268.02428594 -2542.87726593 6266.24657393 C-2549.33245346 6260.63842127 -2555.28114854 6254.49068177 -2561.31891632 6248.44213057 C-2562.65820243 6247.10351945 -2563.99763683 6245.76505669 -2565.33721161 6244.42673445 C-2568.13344003 6241.63197382 -2570.92786866 6238.83542945 -2573.72101593 6236.03758955 C-2577.28369024 6232.46921854 -2580.85083604 6228.90535668 -2584.41935062 6225.34282732 C-2587.18283007 6222.58297833 -2589.94390249 6219.82073109 -2592.70427513 6217.05777502 C-2594.01792914 6215.74345861 -2595.3323134 6214.42987162 -2596.64747047 6213.11705923 C-2608.74154596 6201.03982188 -2608.74154596 6201.03982188 -2614.07878876 6194.77182722 C-2615.95988011 6192.58342354 -2617.97732358 6190.55503312 -2620.03376007 6188.53197432 C-2620.83684601 6187.73662275 -2621.63993195 6186.94127119 -2622.46735382 6186.12181807 C-2623.28333038 6185.31873213 -2624.09930695 6184.51564619 -2624.94001007 6183.68822432 C-2630.11149946 6178.59843302 -2635.1444004 6173.48612965 -2639.8716507 6167.97923994 C-2642.11349577 6165.41912545 -2644.50501989 6163.06592061 -2646.94001007 6160.68822432 C-2650.7268158 6156.95819809 -2654.31398317 6153.12588353 -2657.76422882 6149.08275557 C-2660.13403076 6146.40360885 -2662.68022719 6143.92180778 -2665.25251007 6141.43822432 C-2667.15274891 6139.48369294 -2668.94253253 6137.48771571 -2670.72907257 6135.43041182 C-2674.32334446 6131.29230763 -2678.04862631 6127.29438372 -2681.81501007 6123.31322432 C-2686.69228867 6118.13484963 -2691.52403075 6112.92613322 -2696.26032257 6107.61791182 C-2698.83826422 6104.74429228 -2701.45060353 6101.90362717 -2704.06501007 6099.06322432 C-2707.64662099 6095.16819948 -2711.17589241 6091.23570748 -2714.63922882 6087.23509932 C-2716.82776672 6084.74747706 -2719.07240198 6082.3146898 -2721.31501007 6079.87572432 C-2724.60433245 6076.27431261 -2727.76018643 6072.61515157 -2730.81501007 6068.81322432 C-2734.20386778 6064.61008277 -2737.75238444 6060.62617275 -2741.44001007 6056.68822432 C-2745.91914569 6051.90503675 -2750.1245222 6046.98007744 -2754.22907257 6041.86791182 C-2756.54935958 6039.05569117 -2758.97072141 6036.37025169 -2761.44001007 6033.68822432 C-2765.45852658 6029.31785613 -2769.23788083 6024.81347957 -2772.96735382 6020.19603682 C-2775.85681596 6016.68120925 -2778.82689101 6013.24417311 -2781.81501007 6009.81322432 C-2790.86682163 5999.41411125 -2799.73975702 5988.88423434 -2808.44001007 5978.18822432 C-2809.93944099 5976.35442552 -2811.43944465 5974.52109488 -2812.94001007 5972.68822432 C-2813.68766632 5971.774279 -2814.43532257 5970.86033369 -2815.20563507 5969.91869307 C-2816.65298058 5968.14999636 -2818.10086308 5966.38173889 -2819.54938507 5964.61400557 C-2824.49916229 5958.57130308 -2829.43213012 5952.51512824 -2834.35431671 5946.44994307 C-2837.1677809 5942.98320025 -2839.98480063 5939.51951139 -2842.81110382 5936.06322432 C-2848.64979114 5928.91592472 -2854.39624693 5921.71654153 -2859.99469757 5914.37963057 C-2862.52860002 5911.06191034 -2865.10598725 5907.7794772 -2867.69001007 5904.50072432 C-2877.5398669 5891.98429294 -2887.30741757 5879.4198589 -2896.83136749 5866.65282393 C-2900.98903446 5861.09043064 -2905.21877369 5855.59145017 -2909.50251007 5850.12572432 C-2916.06914653 5841.7357395 -2922.39896196 5833.18467432 -2928.68561554 5824.58373213 C-2931.02793275 5821.38545541 -2933.38474111 5818.1979868 -2935.74103546 5815.01000166 C-2942.50207011 5805.85847506 -2949.18474117 5796.65273218 -2955.83112335 5787.4177165 C-2957.44359346 5785.18325868 -2959.0636799 5782.95452543 -2960.68610382 5780.72728682 C-2966.78951884 5772.3374957 -2972.74735259 5763.86899067 -2978.57160187 5755.28295088 C-2982.20200123 5749.94799827 -2985.94113007 5744.7074828 -2989.75251007 5739.50072432 C-2995.59327233 5731.50800817 -3001.09876532 5723.31068734 -3006.53302765 5715.03710127 C-3009.93059011 5709.88076957 -3013.41268373 5704.80696035 -3017.03376007 5699.80541182 C-3023.91630995 5690.26742825 -3030.30171926 5680.3954713 -3036.75251007 5670.56322432 C-3037.99380749 5668.67634829 -3039.23534294 5666.78962883 -3040.47711945 5664.90306807 C-3051.17628157 5648.63811616 -3061.82436433 5632.33863358 -3072.31501007 5615.93822432 C-3072.97863556 5614.90085127 -3073.64226105 5613.86347822 -3074.3259964 5612.79466963 C-3081.44586889 5601.64348843 -3088.45598627 5590.42482895 -3095.44001007 5579.18822432 C-3095.98189972 5578.31810713 -3096.52378937 5577.44798994 -3097.08209991 5576.55150557 C-3117.08707827 5544.42546592 -3136.44064483 5511.91813471 -3155.44001007 5479.18822432 C-3156.04167999 5478.15375166 -3156.64334991 5477.119279 -3157.26325226 5476.05345869 C-3166.2912482 5460.52397593 -3175.10981995 5444.89043108 -3183.79303741 5429.16625166 C-3185.23885377 5426.55195165 -3186.69049704 5423.94108855 -3188.14704132 5421.33275557 C-3193.33488021 5412.04177967 -3198.43140697 5402.70371703 -3203.48786163 5393.34056807 C-3206.11278399 5388.48039622 -3208.74413482 5383.62441967 -3211.40876007 5378.78588057 C-3218.35247812 5366.16803966 -3225.02178171 5353.42281237 -3231.60407257 5340.61400557 C-3233.99523486 5335.96583612 -3236.41503391 5331.33461173 -3238.86098957 5326.71507311 C-3244.27558303 5316.48035003 -3249.52960982 5306.17221696 -3254.70954132 5295.81713057 C-3255.56086386 5294.11771803 -3256.4122395 5292.4183321 -3257.26366425 5290.71897078 C-3259.03389185 5287.1844386 -3260.80251795 5283.6491105 -3262.57013702 5280.11327314 C-3264.35025201 5276.55296217 -3266.13315481 5272.99407098 -3267.91876984 5269.43651533 C-3277.95193731 5249.44586153 -3287.8098837 5229.41546518 -3297.11240387 5209.07320356 C-3299.06397843 5204.83229831 -3301.06846911 5200.61751745 -3303.08454132 5196.40697432 C-3303.60476868 5195.31886709 -3303.60476868 5195.31886709 -3304.13550568 5194.2087779 C-3304.82284765 5192.77116099 -3305.51031646 5191.3336047 -3306.19791412 5189.89611006 C-3314.62661899 5172.2499041 -3322.66249402 5154.44864116 -3330.52399445 5136.54369307 C-3332.39534098 5132.28437351 -3334.28333448 5128.03257425 -3336.17438507 5123.78197432 C-3366.20915677 5056.21215026 -3393.86044112 4987.56422064 -3419.44001007 4918.18822432 C-3419.90736572 4916.92314039 -3419.90736572 4916.92314039 -3420.3841629 4915.63249922 C-3434.04405032 4878.65505266 -3447.04473316 4841.4417956 -3459.56501007 4804.06322432 C-3459.97283722 4802.84908857 -3460.38066437 4801.63495283 -3460.80084991 4800.3840251 C-3461.15872589 4799.30620771 -3461.51660187 4798.22839033 -3461.88532257 4797.11791182 C-3462.3418924 4795.74481855 -3462.3418924 4795.74481855 -3462.80768585 4794.34398603 C-3463.44001007 4792.18822432 -3463.44001007 4792.18822432 -3463.44001007 4790.18822432 C-3380.23589548 4790.13430783 -3297.0317796 4790.08255882 -3208.78644562 4790.02953291 C-3207.54053189 4790.02878429 -3207.54053189 4790.02878429 -3206.26944819 4790.02802054 C-3116.88256189 4789.97431628 -3027.49567419 4789.92282707 -2672.89775128 4789.76583429 C-2669.93748276 4789.76479205 -2666.97721424 4789.76374768 -2664.01694572 4789.76270262 C-2580.1370178 4789.73309436 -2496.25708934 4789.70542589 -2412.37715993 4789.68035504 C-2409.27268875 4789.67942714 -2406.16821756 4789.67849912 -2403.06374637 4789.67757102 C-2401.52571788 4789.67711126 -2401.52571788 4789.67711126 -2399.9566181 4789.67664221 C-2361.40174559 4789.66511179 -2322.84687322 4789.65313812 -2284.29200092 4789.6408999 C-2280.10292877 4789.63957062 -2275.91385661 4789.6382464 -2271.72478446 4789.63692676 C-2172.83100175 4789.60576943 -2073.93723147 4789.56663869 -1975.04346466 4789.50157881 C-1974.00237631 4789.50089446 -1972.96128795 4789.50021011 -1971.88865147 4789.49950503 C-1937.26731025 4789.47673452 -1902.64596955 4789.45319053 -1868.02462892 4789.42953991 C-1836.74302629 4789.4081731 -1805.46142349 4789.38708398 -1774.17982006 4789.36691046 C-1773.15221929 4789.36624764 -1772.12461852 4789.36558483 -1771.06587833 4789.36490193 C-1706.72140577 4789.32347158 -1642.37693615 4789.29406794 -1578.03245258 4789.27682638 C-1577.03883288 4789.27655854 -1576.04521318 4789.27629071 -1575.02148379 4789.27601475 C-1531.3862708 4789.26426211 -1487.75105766 4789.25501864 -1444.11584356 4789.24864532 C-1426.5617193 4789.24606977 -1409.0075951 4789.24312246 -1391.45347093 4789.23997157 C-1388.54283994 4789.23945223 -1385.63220895 4789.23894494 -1382.72157796 4789.23843894 C-1338.18454028 4789.2306102 -1293.64752526 4789.21447478 -1249.11050391 4789.17428493 C-1248.14958751 4789.17341794 -1247.1886711 4789.17255094 -1246.19863601 4789.17165767 C-1230.74032254 4789.15765948 -1215.28200972 4789.14297021 -1199.823697 4789.12816173 C-1155.95097817 4789.08613363 -1112.07828294 4789.04874189 -1068.20554125 4789.0468967 C-1067.3157353 4789.04685695 -1066.42592936 4789.04681721 -1065.50915959 4789.04677626 C-1046.09859949 4789.04600838 -1026.68804068 4789.04797032 -1007.27748115 4789.05260536 C-999.53652137 4789.05440972 -991.79556154 4789.05583995 -984.05460167 4789.0571475 C-983.21018122 4789.05729986 -982.36576078 4789.05745222 -981.49575183 4789.05760919 C-954.69242341 4789.06226546 -927.88924324 4789.03608384 -901.08595367 4788.99213702 C-874.70230216 4788.94900226 -848.3188345 4788.93604872 -821.93515993 4788.96732273 C-818.32414388 4788.97159797 -814.71312752 4788.9755222 -811.10211084 4788.97923537 C-810.39516347 4788.97997565 -809.68821611 4788.98071594 -808.95984609 4788.98147866 C-797.7998386 4788.99225021 -786.64016345 4788.96956535 -775.48022237 4788.93264286 C-764.56902072 4788.89722168 -753.65824394 4788.89796224 -742.74703551 4788.93521359 C-736.93473356 4788.95403032 -731.12361257 4788.95697722 -725.31139911 4788.91587187 C-720.03982524 4788.87887798 -714.77041069 4788.88772637 -709.49892349 4788.93346169 C-707.6064581 4788.94182042 -705.71382558 4788.93340734 -703.82153746 4788.90619043 C-688.04174744 4788.6941679 -688.04174744 4788.6941679 -681.07416778 4794.99241088 C-679.51422851 4796.71065288 -677.96881359 4798.44222148 -676.44001007 4800.18822432 C-674.69696069 4801.67965505 -672.92896692 4803.14289336 -671.12751007 4804.56322432 C-666.88722063 4807.98436693 -662.74469227 4811.49659225 -658.62751007 4815.06322432 C-653.46835524 4819.51824992 -648.2053212 4823.80099367 -642.82038116 4827.97948408 C-639.07542885 4830.88883292 -635.38904279 4833.85798384 -631.72931671 4836.87377119 C-623.00556029 4844.05360481 -613.99499346 4850.77821983 -604.85895538 4857.42211103 C-602.46849278 4859.1674286 -600.08918451 4860.92683288 -597.71344757 4862.69213057 C-564.54243163 4887.33198122 -530.02312709 4910.18457533 -494.44001007 4931.18822432 C-493.50962921 4931.73978193 -492.57924835 4932.29133955 -491.62067413 4932.85961103 C-472.02229391 4944.46606909 -452.04734535 4955.31050646 -431.86579132 4965.86400557 C-428.99909866 4967.36441816 -426.14267939 4968.88162476 -423.29547882 4970.41869307 C-348.38411645 5010.78168896 -266.18489467 5040.40954854 477.57219696 5051.69554853 C488.61971577 5048.35221685 499.59998152 5044.80680507 510.55998993 5041.18822432 C511.33497833 5040.93319136 512.10996674 5040.6781584 512.90843964 5040.41539717 C585.55431677 5016.48892655 657.85238674 4986.44287412 723.92864227 4947.71117353 C727.8737178 4945.42787597 731.86630844 4943.2322117 735.8549118 4941.02611494 C748.97530475 4933.75832872 761.82847547 4926.11543639 774.55998993 4918.18822432 C775.41496063 4917.65858076 776.26993134 4917.12893721 777.15081024 4916.58324385 C800.81564152 4901.88704724 824.10494836 4886.28763164 846.49846649 4869.71263838 C848.79181359 4868.0168 851.09349916 4866.332648 853.39592743 4864.64916182 C862.54575734 4857.9486103 871.61935355 4851.16573476 880.55998993 4844.18822432 C881.13056122 4843.74382002 881.70113251 4843.29941572 882.28899384 4842.84154463 C889.23582538 4837.42729741 896.12826811 4831.95587786 902.92717743 4826.35619307 C904.67728519 4824.91508059 906.43248605 4823.48013028 908.19280243 4822.05150557 C914.53881227 4816.8988416 920.76743188 4811.62256913 926.95842743 4806.28588057 C929.30781969 4804.26078313 931.66674133 4802.24797702 934.03655243 4800.24681807 C940.98794534 4794.36328619 947.73210599 4788.30673768 954.36077118 4782.06127119 C957.52323575 4779.08228294 960.70115628 4776.1451039 963.99748993 4773.31322432 C967.27592479 4770.49504489 970.30771475 4767.48522361 973.30998993 4764.37572432 C975.22026925 4762.51850831 977.1686896 4760.78937523 979.18865204 4759.05516768 C983.55156612 4755.24741823 987.66375579 4751.22905216 991.75139618 4747.12963057 C992.50033646 4746.38164701 993.24927673 4745.63366346 994.02091217 4744.86301374 C995.59270218 4743.29189967 997.16324842 4741.71954039 998.73259735 4740.14598799 C1001.11600297 4737.75722586 1003.50470061 4735.37384986 1005.8939743 4732.99095869 C1007.4301023 4731.45416981 1008.96592002 4729.91707072 1010.50139618 4728.37963057 C1011.20575302 4727.67729795 1011.91010986 4726.97496534 1012.63581085 4726.25134993 C1016.57634438 4722.29239761 1020.34212622 4718.23987178 1023.97025299 4713.99204206 C1025.59842227 4712.14461652 1027.3019921 4710.41185462 1029.05998993 4708.68822432 C1032.05233368 4705.74222217 1034.81323165 4702.65839424 1037.55217743 4699.47728682 C1039.50354178 4697.2525796 1041.50167449 4695.07669166 1043.51433563 4692.9074626 C1048.3223647 4687.7234835 1052.87849094 4682.41372306 1057.31389618 4676.90306807 C1059.64829582 4674.08148936 1062.07989591 4671.3823172 1064.55998993 4668.68822432 C1069.45505121 4663.36191343 1074.02178013 4657.81881736 1078.55998993 4652.18822432 C1080.01749763 4650.41671137 1081.47583915 4648.64588414 1082.93498993 4646.87572432 C1087.71248736 4641.03381036 1092.37688448 4635.10765724 1097.01946259 4629.15843916 C1098.64668941 4627.07734242 1100.28087801 4625.00183006 1101.91545868 4622.92650557 C1108.87162291 4614.07028696 1115.62303164 4605.09850655 1122.16277313 4595.93041182 C1124.28659636 4592.9590075 1126.42258616 4589.9974543 1128.57756805 4587.04857588 C1136.50085487 4576.19383843 1144.07475307 4565.13995914 1151.49748993 4553.93822432 C1152.34780289 4552.6578076 1152.34780289 4552.6578076 1153.21529388 4551.35152388 C1193.13610661 4491.23155821 1228.36136166 4428.21293154 1257.55998993 4362.18822432 C1257.87043243 4361.48719587 1258.18087494 4360.78616743 1258.50072479 4360.0638957 C1278.79877799 4314.17121037 1295.78461976 4267.09226227 1310.78264618 4219.22338057 C1311.11624397 4218.16285727 1311.11624397 4218.16285727 1311.45658112 4217.08090925 C1313.61557758 4210.14725784 1315.56295524 4203.17784571 1317.55998993 4196.18822432 C-306.04001007 4196.18822432 -1929.64001007 4196.18822432 -3602.44001007 4196.18822432 C-3613.2060502 4122.02217006 -3613.2060502 4122.02217006 -3616.15526581 4099.14681578 C-3616.45309658 4096.83672009 -3616.75228981 4094.52680286 -3617.05146027 4092.21688032 C-3626.91711599 4015.87759918 -3634.60934996 3939.27589531 -3642.34626007 3824.33275557 C-3642.40688629 3823.3187216 -3642.46751251 3822.30468763 -3642.52997589 3821.25992537 C-3645.74173106 3765.79100217 -3646.77455876 3710.43028594 -3646.69714814 3654.88560003 C-3646.6896246 3648.86283545 -3646.69231741 3642.84013685 -3646.70075226 3636.81737471 C-3646.78236787 3576.96553139 -3645.59779822 3517.22921932 -3642.34626007 3457.45384932 C-3642.27693268 3456.17028547 -3642.20760529 3454.88672163 -3642.13617706 3453.56426191 C-3639.28658589 3401.36101498 -3635.39811861 3349.23294011 -3630.44001007 3297.18822432 C-3630.37493759 3296.50476439 -3630.30986511 3295.82130445 -3630.24282074 3295.11713362 C-3622.54928553 3214.47554197 -3611.97240943 3134.08769791 -3439.44001007 2433.18822432 C-3439.05329132 2432.10454573 -3438.66657257 2431.02086714 -3438.26813507 2429.9043498 C-3410.49577399 2352.12383003 -3380.63484686 2274.96120233 -3347.38599396 2199.3406291 C-3346.35348791 2196.99135973 -3345.32272321 2194.64133044 -3344.29206085 2192.29125166 C-3324.72751939 2147.70091785 -3304.38773012 2103.5043836 -3283.13581085 2059.69310713 C-3281.45723887 2056.22383281 -3279.78878629 2052.74988033 -3278.12360382 2049.27416182 C-3266.12399449 2024.25254708 -3253.95077074 1999.27289315 -3240.88141632 1974.78978682 C-3238.33514481 1970.01566221 -3235.86051032 1965.20524307 -3233.38092804 1960.39623213 C-3228.05267414 1950.06638254 -3222.64771443 1939.78986256 -3217.04767609 1929.60472822 C-3213.29885867 1922.78364597 -3209.62345824 1915.92509965 -3205.96439362 1909.05559492 C-3200.04817807 1897.9544553 -3193.97585111 1886.95408063 -3187.74860382 1876.02416182 C-3184.75899326 1870.7705656 -3181.8281442 1865.48580818 -3178.9053421 1860.19481611 C-3171.88147552 1847.48174376 -3164.67917413 1834.88894925 -3157.3115921 1822.37230635 C-3155.30529419 1818.95903511 -3153.30738537 1815.5409521 -3151.31110382 1812.12181807 C-3142.13294053 1796.4093107 -3132.85347117 1780.76126861 -3123.44001007 1765.18822432 C-3122.85654816 1764.2222331 -3122.27308624 1763.25624189 -3121.67194366 1762.26097822 C-3113.35618702 1748.50648027 -3104.89099548 1734.84986261 -3096.34870148 1721.23509932 C-3094.40931249 1718.13922126 -3092.47644117 1715.03936434 -3090.54547882 1711.93822432 C-3084.17806931 1701.71569469 -3077.77673066 1691.52126698 -3071.20124054 1681.43114424 C-3069.05887461 1678.14236665 -3066.9268614 1674.84709096 -3064.79929352 1671.54872847 C-3058.23530378 1661.37801775 -3051.59471275 1651.25829112 -3044.9341507 1641.15062666 C-3043.07240185 1638.32444523 -3041.21320631 1635.49659524 -3039.35407257 1632.66869307 C-3031.966179 1621.44577347 -3024.47431604 1610.30166079 -3016.85102081 1599.23728132 C-3014.98591105 1596.52878583 -3013.12733381 1593.81583513 -3011.26851654 1591.10301924 C-2993.45199274 1565.1076729 -2975.26923228 1539.37105011 -2956.79938507 1513.83666182 C-2954.57573571 1510.76203398 -2952.35720508 1507.68381946 -2950.14313507 1504.60228682 C-2944.51362147 1496.77324544 -2938.83311338 1488.99050923 -2933.02521515 1481.2927165 C-2929.75850354 1476.9598569 -2926.53346577 1472.59876083 -2923.32794952 1468.22045088 C-2917.52666221 1460.29901439 -2911.61170799 1452.4850837 -2905.55646515 1444.75609541 C-2901.72612837 1439.8617463 -2897.96529742 1434.92224105 -2894.25251007 1429.93822432 C-2889.20872496 1423.17358909 -2884.03783265 1416.52022503 -2878.79889679 1409.90599775 C-2876.50488857 1407.00613397 -2874.22323752 1404.09657784 -2871.94001007 1401.18822432 C-2871.02075379 1400.01894204 -2870.10148297 1398.84967119 -2869.18219757 1397.68041182 C-2867.37126832 1395.3759433 -2865.56426444 1393.06847845 -2863.76032257 1390.75853682 C-2857.73659018 1383.05358476 -2851.60795945 1375.44046765 -2845.42829132 1367.86009932 C-2843.08279474 1364.98209977 -2840.7539946 1362.09166596 -2838.44001007 1359.18822432 C-2833.32594894 1352.77672696 -2828.14370917 1346.42049502 -2822.96491241 1340.06127119 C-2821.63902432 1338.43267473 -2820.31476372 1336.80275353 -2818.99079132 1335.17259932 C-2814.56298626 1329.73522291 -2810.06407284 1324.36409897 -2805.52326202 1319.02123213 C-2802.64409671 1315.62830681 -2799.80778426 1312.20532056 -2797.00251007 1308.75072432 C-2793.04724983 1303.88978731 -2788.98027536 1299.13414871 -2784.88825226 1294.38866377 C-2781.78574376 1290.78276485 -2778.74542484 1287.13627607 -2775.75251007 1283.43822432 C-2772.20022192 1279.06026919 -2768.4796995 1274.8770878 -2764.68219757 1270.71166182 C-2762.39485103 1268.13740073 -2760.22452736 1265.49532942 -2758.06501007 1262.81322432 C-2753.90438932 1257.67063888 -2749.49644703 1252.81370695 -2745.00251007 1247.96556807 C-2742.34134662 1245.08128878 -2739.75301999 1242.14485298 -2737.18219757 1239.18041182 C-2735.12500608 1236.82801796 -2733.03404092 1234.50787466 -2730.94001007 1232.18822432 C-2728.25017576 1229.20759711 -2725.57690643 1226.21577199 -2722.94001007 1223.18822432 C-2718.8291858 1218.47119554 -2714.63258747 1213.83252723 -2710.44001007 1209.18822432 C-2708.93972328 1207.5218158 -2707.43972135 1205.85515079 -2705.94001007 1204.18822432 C-2704.82045929 1202.94492353 -2704.82045929 1202.94492353 -2703.67829132 1201.67650557 C-2702.21561752 1200.05046157 -2700.75460675 1198.42291969 -2699.29547882 1196.79369307 C-2694.07337513 1190.96940085 -2688.78370283 1185.21113763 -2683.47126007 1179.46947432 C-2680.65788734 1176.4276043 -2677.86035958 1173.37166554 -2675.06501007 1170.31322432 C-2669.20309985 1163.90868201 -2663.28175498 1157.56019829 -2657.34626007 1151.22386885 C-2656.04076996 1149.82976324 -2654.73612357 1148.43486719 -2653.43219757 1147.03929853 C-2646.06644134 1139.15716918 -2638.69631217 1131.30659962 -2630.96735382 1123.77806807 C-2629.01325143 1121.77564165 -2627.20138738 1119.76217089 -2625.38800812 1117.63841963 C-2621.05582019 1112.67195438 -2616.41698752 1108.03972748 -2611.74469757 1103.39525557 C-2610.83422668 1102.48619963 -2609.9237558 1101.57714369 -2608.98569489 1100.6405406 C-2606.58641548 1098.2450413 -2604.18415107 1095.85255831 -2601.78119659 1093.46074629 C-2599.34142821 1091.03123586 -2596.90450662 1088.59887367 -2594.46735382 1086.16673994 C-2590.17671133 1081.88560989 -2585.88361344 1077.60695276 -2581.58866119 1073.33014631 C-2577.61296993 1069.36690609 -2573.64687288 1065.39416098 -2569.68488312 1061.41722822 C-2565.14518588 1056.86151314 -2560.60327142 1052.30801995 -2556.05973339 1047.75613546 C-2553.32163214 1045.01281978 -2550.58447433 1042.26857624 -2547.8494339 1039.52220869 C-2545.18748541 1036.8493136 -2542.52302817 1034.17894224 -2539.85688972 1031.51022673 C-2538.84944218 1030.5009495 -2537.84286619 1029.49080141 -2536.83723259 1028.47971678 C-2531.75291346 1023.36892499 -2526.65353268 1018.34858622 -2521.15517426 1013.68196821 C-2518.09097402 1011.01334299 -2515.28090014 1008.09022608 -2512.44001007 1005.18822432 C-2508.1690187 1000.86731963 -2503.86838009 996.6871419 -2499.22907257 992.75853682 C-2496.57860084 990.43214023 -2494.13859029 987.91175382 -2491.69001007 985.37572432 C-2489.74310781 983.48290268 -2487.75554059 981.70132674 -2485.70563507 979.92259932 C-2481.42571909 976.20489247 -2477.30135279 972.34045933 -2473.19001007 968.43822432 C-2466.33109944 961.95559441 -2459.41321398 955.54755608 -2452.44001007 949.18822432 C-2451.39915907 948.23172211 -2450.3588058 947.27467804 -2449.31891632 946.31713057 C-2444.42971066 941.81687352 -2439.51992966 937.35002571 -2434.49860382 932.99681807 C-2431.95044357 930.75811181 -2429.44590414 928.4741222 -2426.94001007 926.18822432 C-2421.44322427 921.1802088 -2415.88000713 916.26611442 -2410.22126007 911.44213057 C-2409.02320232 910.42016052 -2407.82528997 909.39802 -2406.62751007 908.37572432 C-2406.02148956 907.85856855 -2405.41546906 907.34141279 -2404.79108429 906.80858564 C-2401.04968745 903.60345902 -2397.37902529 900.33628703 -2393.75251007 897.00072432 C-2389.3437944 892.95401463 -2384.77935332 889.16068717 -2380.12360382 885.40306807 C-2377.4929245 883.23189605 -2374.96058583 880.98581075 -2372.44001007 878.68822432 C-2368.24271974 874.86651569 -2363.90290776 871.27348242 -2359.49079132 867.70384932 C-2355.91944259 864.75897277 -2352.42792215 861.73099233 -2348.94001007 858.68822432 C-2343.75732825 854.17018879 -2338.51526393 849.74895417 -2333.17047882 845.42259932 C-2330.12034199 842.92663613 -2327.12422602 840.37275121 -2324.12751007 837.81322432 C-2319.07784254 833.50876211 -2313.91004276 829.38474385 -2308.67121124 825.3137126 C-2304.67788748 822.19716099 -2300.78729636 818.98289083 -2296.94001007 815.68822432 C-2292.01657194 811.47537781 -2286.98858329 807.4284848 -2281.87482452 803.44945478 C-2277.40634864 799.96668113 -2273.01001548 796.40334274 -2268.62751007 792.81322432 C-2262.42406273 787.74075482 -2256.10956916 782.83638437 -2249.72589874 777.9934001 C-2245.07470666 774.45830251 -2240.48739357 770.85570268 -2235.94001007 767.18822432 C-2228.65061131 761.31725113 -2221.23086645 755.62823292 -2213.7779007 749.96703291 C-2211.30217453 748.0833507 -2208.83163269 746.19301862 -2206.36188507 744.30150557 C-2197.05543196 737.18028604 -2187.70498543 730.12851858 -2178.25519562 723.19847822 C-2173.26949139 719.54184252 -2168.31384037 715.84867555 -2163.37751007 712.12572432 C-2155.57390618 706.2498747 -2147.65954275 700.53323701 -2139.72663116 694.83373213 C-2137.44693494 693.19320762 -2135.17130509 691.54720742 -2132.89704132 689.89916182 C-2123.49127292 683.08462323 -2114.03669739 676.3443894 -2104.5357132 669.66332197 C-2101.76171233 667.71079247 -2098.9920171 665.75220262 -2096.22223663 663.79369307 C-2093.36943997 661.77745076 -2090.51434303 659.76448278 -2087.65876007 657.75218916 C-2086.1713082 656.70370581 -2084.68433397 655.65454453 -2083.19782257 654.60472822 C-2020.6016009 610.4215163 -1956.06768231 568.84410823 -1890.57965851 529.09642744 C-1887.83580749 527.42878051 -1885.09415842 525.75758415 -1882.35366058 524.08443403 C-1866.82058401 514.60183494 -1851.19942553 505.29139396 -1835.44001007 496.18822432 C-1833.34364033 494.97470956 -1831.24728646 493.76116738 -1829.15094757 492.54759932 C-1822.58648439 488.75095279 -1816.01410495 484.96816187 -1809.44001007 481.18822432 C-1808.31578644 480.54095381 -1807.19156281 479.8936833 -1806.03327179 479.22679853 C-1782.254593 465.54401969 -1758.25424716 452.28899698 -1734.11188507 439.25853682 C-1730.42662785 437.26789583 -1726.74960669 435.26340721 -1723.08063507 433.24291182 C-1710.44829525 426.29164812 -1697.68913544 419.61392323 -1684.86579132 413.02416182 C-1680.21762188 410.63299953 -1675.58639749 408.21320048 -1670.96685886 405.76724482 C-1660.73213579 400.35265135 -1650.42400272 395.09862456 -1640.06891632 389.91869307 C-1638.36950379 389.06737053 -1636.67011786 388.21599489 -1634.97075653 387.36457014 C-1631.43622435 385.59434254 -1627.90089626 383.82571644 -1624.3650589 382.05809736 C-1620.80474793 380.27798238 -1617.24585674 378.49507958 -1613.68830109 376.70946455 C-1593.68362658 366.66925996 -1573.64077038 356.79885081 -1553.28202057 347.49434614 C-1549.20283595 345.6196479 -1545.14735345 343.69693873 -1541.09626007 341.76244307 C-1539.73372856 341.11299267 -1538.37118008 340.46357787 -1537.00861359 339.81420088 C-1536.34628723 339.49842085 -1535.68396088 339.18264082 -1535.00156403 338.8572917 C-1518.37767535 330.94216202 -1501.60489787 323.3976863 -1484.75455475 315.97917891 C-1479.03727738 313.45950939 -1473.34250224 310.89295847 -1467.65094757 308.31566572 C-1421.64737085 287.51410486 -1374.81102052 268.38634048 -1327.76062775 250.09069014 C-1325.42532079 249.1825118 -1323.09060793 248.27281796 -1320.75592804 247.363029 C-1231.28756959 212.53020935 -1140.44519488 181.19175223 -738.44001007 75.18822432 C-737.32553497 74.95639448 -736.21105988 74.72456465 -735.06281281 74.48570967 C-695.65715511 66.30481808 -656.0957133 59.03801488 -616.44001007 52.18822432 C-614.51475494 51.85564619 -614.51475494 51.85564619 -612.55060577 51.51634932 C-527.23942518 36.82591466 -441.31478813 25.39356025 -140.37751007 2.50072432 C-139.59737171 2.46990892 -138.81723335 2.43909353 -138.01345444 2.40734434 C-126.49044737 1.95319876 -114.96637156 1.54729875 -103.44001007 1.18822432 C-102.65336849 1.16346651 -101.86672691 1.13870871 -101.05624771 1.11320066 C-67.3760299 0.06360757 -33.69374486 -0.01372632 0 0 Z " fill="#004400" transform="translate(3646.440010070801,-0.18822431564331055)" style="fill: #00bdf2;"/>
</svg>
