<?xml version="1.0" encoding="UTF-8" standalone="no"?>
<!-- Created with Inkscape (http://www.inkscape.org/) -->

<svg
   version="1.1"
   id="svg2"
   width="12367.373"
   height="4403.0532"
   viewBox="0 0 12367.373 4403.0532"
   xmlns="http://www.w3.org/2000/svg"
   xmlns:svg="http://www.w3.org/2000/svg">
  <defs
     id="defs6" />
  <g
     id="g8"
     transform="matrix(1.3333333,0,0,-1.3333333,-1019.8267,7188.0267)">
    <g
       id="g10"
       transform="translate(2358.3734,4307.4887)">
      <path
         d="m 0,0 h -359.8 -359.73 c 44.5,157.72 187.85,273.85 359.79,273.85 94.84,0 180.2,-36.18 245.77,-94.4 H 689.89 C 538,606.08 131.8,911.97 -346.9,911.97 c -608.39,0 -1101.49,-493.09 -1101.49,-1101.49 0,-55.96 5.48,-110.45 13.51,-164.15 h 764.89 359.8 359.8 c -44.59,-157.72 -187.94,-273.94 -359.88,-273.94 -94.84,0 -180.18,36.27 -245.77,94.4 h -836.97 c 144.51,-439.88 557.86,-757.8 1046.11,-757.8 608.34,0 1101.5,493.13 1101.5,1101.49 0,64.76 -6.7,127.79 -17.52,189.52 z"
         style="fill:#00bdf2;fill-opacity:1;fill-rule:evenodd;stroke:none"
         id="path12" />
    </g>
    <g
       id="g14"
       transform="translate(6893.2334,3780.2187)">
      <path
         d="m 0,0 c -65.58,-58.13 -150.94,-94.4 -245.77,-94.4 -172.01,0 -315.3,116.21 -359.86,273.87 h 359.79 264.22 v 347.82 h -264.22 -359.79 c 44.56,157.66 187.85,273.86 359.86,273.86 94.83,0 180.19,-36.26 245.77,-94.38 h 820.19 c -151.89,426.61 -558.06,732.49 -1036.78,732.49 -608.4,0 -1101.48,-493.15 -1101.48,-1101.49 0,-608.34 493.08,-1101.49 1101.48,-1101.49 490.46,0 905.55,320.69 1048.24,763.72 z"
         style="fill:#00bdf2;fill-opacity:1;fill-rule:evenodd;stroke:none"
         id="path16" />
    </g>
    <g
       id="g18"
       transform="translate(9130.4234,3780.2187)">
      <path
         d="m 0,0 c -65.58,-58.13 -150.94,-94.4 -245.78,-94.4 -172,0 -315.29,116.21 -359.85,273.87 h 359.79 264.22 v 347.82 h -264.22 -359.79 c 44.56,157.66 187.85,273.86 359.85,273.86 94.84,0 180.2,-36.26 245.78,-94.38 h 820.19 c -151.89,426.61 -558.07,732.49 -1036.79,732.49 -608.4,0 -1101.47,-493.15 -1101.47,-1101.49 0,-608.34 493.07,-1101.49 1101.47,-1101.49 490.47,0 905.56,320.69 1048.25,763.72 z"
         style="fill:#00bdf2;fill-opacity:1;fill-rule:evenodd;stroke:none"
         id="path20" />
    </g>
    <g
       id="g22"
       transform="translate(5417.0734,4176.9387)">
      <path
         d="m 0,0 c -30.79,580.76 -510.07,1042.54 -1098.49,1042.54 -608.42,0 -1101.58,-493.13 -1101.58,-1101.49 0,-608.4 493.16,-1101.49 1101.58,-1101.49 119.28,0 233.88,19.48 341.47,54.57 v -81.99 H 3 L 3,0 Z m -1101.78,-416.76 c -204.27,0 -369.78,165.6 -369.78,369.78 0,204.27 165.51,369.87 369.78,369.87 204.27,0 369.78,-165.6 369.78,-369.87 0,-204.18 -165.51,-369.78 -369.78,-369.78 z"
         style="fill:#00bdf2;fill-opacity:1;fill-rule:evenodd;stroke:none"
         id="path24" />
    </g>
    <g
       id="g26"
       transform="translate(4505.1534,2244.4287)">
      <path
         d="m 0,0 v 493.65 h 124.01 c 37.65,0 64.64,-1.45 80.98,-4.44 16.33,-2.99 30.51,-8.02 42.53,-15.1 17.66,-10.65 31.08,-24.79 40.12,-42.31 9.13,-17.52 13.7,-38.24 13.71,-62.16 0,-21.36 -4.3,-40.41 -12.67,-57.12 -8.48,-16.62 -21.97,-32.9 -40.64,-48.74 22.02,-11.08 38.65,-26.18 49.75,-45.28 11.09,-19.19 16.69,-42.11 16.69,-68.8 0,-22.03 -3.78,-42.83 -11.29,-62.52 C 295.75,67.48 285.24,50.71 271.88,36.83 259.04,23.35 243.14,13.86 224.4,8.31 205.5,2.77 176.47,0 137.22,0 Z m 115.4,300.69 h 7.37 c 22.62,0 39.39,4.76 50.12,14.23 10.88,9.49 16.19,24.24 16.19,44.15 0.01,17.29 -5.31,30.57 -15.96,39.83 -10.73,9.33 -25.97,14 -45.89,14 -3.22,0 -5.7,-0.06 -7.38,-0.15 -1.74,-0.14 -3.06,-0.28 -4.16,-0.51 z m 0,-213.51 h 9.93 c 24.15,0 42.31,5.69 54.49,17 12.18,11.29 18.24,28.23 18.24,50.62 0,20.93 -5.98,36.25 -17.95,46.04 -11.95,9.69 -30.85,14.57 -56.74,14.57 h -7.97 z"
         style="fill:#2c2e35;fill-opacity:1;fill-rule:evenodd;stroke:none"
         id="path28" />
    </g>
    <g
       id="g30"
       transform="translate(4894.5534,2738.0987)">
      <path
         d="m 0,0 h 116.74 v -309.38 c 0,-46.76 2.91,-75.72 8.74,-86.89 5.92,-11.09 16.28,-16.63 31.23,-16.63 15.18,0 25.68,5.77 31.43,17.29 5.76,11.52 8.63,40.26 8.62,86.23 V 0 h 114.53 v -315.15 c 0,-35.67 -1.6,-62.37 -4.68,-79.94 -3.12,-17.66 -8.17,-32.99 -15.24,-46.03 -11.74,-22.24 -28.74,-38.54 -50.99,-48.89 -22.25,-10.36 -51.14,-15.53 -86.88,-15.53 -32.9,0 -59.76,4.88 -80.4,14.58 -20.78,9.7 -37.2,25.25 -49.46,46.61 -8.75,15.18 -14.89,34.66 -18.38,58.38 C 1.68,-362.28 0,-322.22 0,-265.77 Z"
         style="fill:#2c2e35;fill-opacity:1;fill-rule:evenodd;stroke:none"
         id="path32" />
    </g>
    <g
       id="g34"
       transform="translate(5294.4734,2738.0787)">
      <path
         d="M 0,0 H 115.41 V -493.73 H 0 Z"
         style="fill:#2c2e35;fill-opacity:1;fill-rule:evenodd;stroke:none"
         id="path36" />
    </g>
    <g
       id="g38"
       transform="translate(5752.8034,2244.4087)">
      <path
         d="m 0,0 h -254.23 v 493.73 h 115.41 V 99.71 L 0,99.71 Z"
         style="fill:#2c2e35;fill-opacity:1;fill-rule:evenodd;stroke:none"
         id="path40" />
    </g>
    <g
       id="g42"
       transform="translate(5812.2734,2244.4287)">
      <path
         d="m 0,0 v 493.65 h 127.3 c 46.61,0 81.21,-3.93 103.52,-12.03 22.54,-7.94 40.34,-21.74 53.62,-41.13 10.22,-15.18 17.52,-34.81 21.73,-58.88 4.3,-24 6.44,-68.95 6.44,-134.83 0,-65.79 -2.14,-110.65 -6.44,-134.58 C 301.96,88.28 294.66,68.57 284.44,53.19 271.16,33.77 253.36,20 230.82,12.04 208.51,3.93 173.91,0 127.3,0 Z M 116.13,401.67 V 90.1 c 2.29,-0.44 4.53,-0.66 6.72,-0.66 h 9.99 c 12.27,0 22.63,1.67 30.88,5.1 8.23,3.44 14.86,8.9 20.06,16.34 4.21,5.98 7.13,17.52 8.83,34.66 1.53,17.06 2.3,50.62 2.31,100.67 v 22.39 c 0,41.06 -0.72,68.81 -2.17,83.23 -1.53,14.38 -4.32,24.3 -8.33,29.64 -4.51,7.07 -11.09,12.32 -19.77,15.67 -8.61,3.43 -19.69,5.19 -33.11,5.19 -4.16,0 -7.3,-0.08 -9.49,-0.23 -2.26,-0.06 -4.3,-0.2 -5.92,-0.43 z"
         style="fill:#2c2e35;fill-opacity:1;fill-rule:evenodd;stroke:none"
         id="path44" />
    </g>
    <g
       id="g46"
       transform="translate(6388.1834,2244.4087)">
      <path
         d="m 0,0 v 493.73 h 113.45 c 41.87,0 72.87,-1.82 92.79,-5.48 20.05,-3.64 36.85,-9.7 50.56,-18.3 18.15,-11.08 31.94,-27.65 41.5,-49.46 9.49,-21.96 14.23,-48.08 14.23,-78.42 0,-50.04 -13.14,-88.05 -39.6,-113.96 -26.36,-25.97 -65.07,-38.96 -116.16,-38.96 H 115.99 L 115.99,0 Z m 115.99,281.15 c 1.7,-0.23 3.72,-0.43 6,-0.66 2.18,-0.2 5.32,-0.3 9.41,-0.29 23.05,0 39.74,5.4 49.96,16.13 10.3,10.8 15.4,28.23 15.4,52.15 0,19.86 -5.39,34.23 -16.27,42.97 -10.95,8.76 -29.11,13.13 -54.49,13.14 h -10.01 z"
         style="fill:#2c2e35;fill-opacity:1;fill-rule:evenodd;stroke:none"
         id="path48" />
    </g>
    <g
       id="g50"
       transform="translate(6770.9134,2244.4087)">
      <path
         d="M 0,0 V 493.73 H 268.6 V 397.86 H 114.69 v -90.73 h 142.1 V 208.05 H 114.69 V 100.31 H 268.6 V 0 Z"
         style="fill:#2c2e35;fill-opacity:1;fill-rule:evenodd;stroke:none"
         id="path52" />
    </g>
    <g
       id="g54"
       transform="translate(7119.4634,2244.3887)">
      <path
         d="m 0,0 v 493.73 h 129.84 c 42.54,0 73.47,-1.98 92.66,-5.91 19.26,-4.01 34.81,-10.8 46.76,-20.35 14.08,-11.6 24.65,-25.77 31.66,-42.68 6.86,-16.86 10.36,-37 10.36,-60.26 0,-28.45 -4.96,-52.24 -14.89,-71.49 -9.99,-19.28 -25.45,-35.08 -46.38,-47.42 35.73,-15.84 54.57,-53.33 56.45,-112.57 v -1.59 c 0.22,-6.21 0.44,-15.18 0.66,-26.93 C 307.93,48.95 317.11,14.14 334.63,0 H 199.74 c -3,10.27 -5.18,21.02 -6.56,32.24 -1.47,11.23 -2.13,23.26 -2.13,36.04 0,7.94 0.23,17.5 0.66,28.66 0.38,11.31 0.58,18.61 0.58,22.03 0,30.12 -3.87,50.7 -11.81,61.87 -7.87,11.08 -22.1,16.62 -42.59,16.62 H 114.08 L 114.08,0 Z m 114.08,288.22 c 2,0.01 4.53,-0.09 7.59,-0.29 3.08,-0.22 5.4,-0.37 6.87,-0.37 23.92,0 40.92,4.82 50.85,14.46 9.92,9.61 14.95,25.8 14.95,48.72 0,21.15 -5.03,36.19 -14.95,45.02 -9.93,8.89 -26.93,13.33 -50.85,13.33 -1.47,0 -3.79,-0.14 -6.87,-0.35 -3.06,-0.23 -5.6,-0.29 -7.59,-0.29 z"
         style="fill:#2c2e35;fill-opacity:1;fill-rule:evenodd;stroke:none"
         id="path56" />
    </g>
    <g
       id="g58"
       transform="translate(7512.6734,2244.4087)">
      <path
         d="M 0,0 V 493.73 H 269.26 V 397.86 H 116.15 V 308.08 H 258.12 V 208.71 H 116.15 V 0 Z"
         style="fill:#2c2e35;fill-opacity:1;fill-rule:evenodd;stroke:none"
         id="path60" />
    </g>
    <g
       id="g62"
       transform="translate(7858.2034,2244.4087)">
      <path
         d="M 0,0 V 493.73 H 268.74 V 397.86 H 114.83 V 307.13 H 256.85 V 208.05 H 114.83 V 100.31 H 268.74 V 0 Z"
         style="fill:#2c2e35;fill-opacity:1;fill-rule:evenodd;stroke:none"
         id="path64" />
    </g>
    <g
       id="g66"
       transform="translate(8409.1734,2435.4787)">
      <path
         d="m 0,0 h 113.53 c 0.21,-2.99 0.35,-6.2 0.43,-9.63 0.06,-3.44 0.15,-8.54 0.15,-15.41 0,-60.24 -13.13,-104.97 -39.62,-134.14 -26.33,-29.18 -66.82,-43.78 -121.33,-43.78 -32.01,0 -59.51,5.4 -82.34,16.05 -22.91,10.65 -41.38,26.86 -55.44,48.45 -9.87,15.38 -16.94,36.68 -21.18,64.04 -4.3,27.36 -6.41,70.76 -6.41,130.22 0,59.39 2.11,102.79 6.41,130.15 4.25,27.35 11.31,48.73 21.18,64.13 13.85,21.36 32.09,37.4 54.84,48.22 22.54,10.79 49.61,16.19 81.06,16.19 54.05,0 94.61,-15.03 121.68,-45.08 26.98,-29.98 40.57,-74.92 40.57,-134.74 v -4.82 L 1.32,130.14 c -0.43,33.56 -4.3,57.12 -11.6,70.68 -7.21,13.58 -19.4,20.37 -36.56,20.37 -18.53,0 -31.29,-8.32 -38.07,-24.88 -6.93,-16.56 -10.28,-60.26 -10.28,-131.25 V 55.8 c 0,-76.31 3.35,-123.06 10.28,-140.29 6.78,-17.21 19.54,-25.81 38.07,-25.81 17.37,0 29.49,6.27 36.42,18.74 C -3.49,-79.01 0,-55.81 0,-21.81 Z"
         style="fill:#2c2e35;fill-opacity:1;fill-rule:evenodd;stroke:none"
         id="path68" />
    </g>
    <g
       id="g70"
       transform="translate(8667.0834,2244.4087)">
      <path
         d="m 0,0 v 397.86 h -92.35 v 95.87 H 212.87 V 397.86 H 115.76 L 115.76,0 Z"
         style="fill:#2c2e35;fill-opacity:1;fill-rule:evenodd;stroke:none"
         id="path72" />
    </g>
    <g
       id="g74"
       transform="translate(8935.6834,2738.0787)">
      <path
         d="M 0,0 H 115.41 V -493.73 H 0 Z"
         style="fill:#2c2e35;fill-opacity:1;fill-rule:evenodd;stroke:none"
         id="path76" />
    </g>
    <g
       id="g78"
       transform="translate(9129.7734,2491.2787)">
      <path
         d="m 0,0 c 0,59.37 2.13,102.77 6.44,130.13 4.3,27.36 11.31,48.74 21.15,64.13 14.08,21.81 32.53,37.92 55.44,48.59 22.83,10.51 50.33,15.82 82.43,15.82 32.26,0 59.68,-5.31 82.22,-15.82 22.54,-10.67 40.86,-26.78 54.94,-48.59 10.28,-15.62 17.58,-37.06 21.8,-64.42 4.32,-27.36 6.43,-70.68 6.43,-129.84 0,-59.02 -2.11,-102.28 -6.43,-129.72 -4.22,-27.42 -11.52,-48.95 -21.8,-64.56 -13.87,-21.59 -32.18,-37.73 -54.94,-48.43 -22.75,-10.65 -50.19,-16.05 -82.22,-16.05 -32.1,0 -59.6,5.4 -82.43,16.05 -22.91,10.71 -41.36,26.84 -55.44,48.43 -9.84,15.38 -16.85,36.76 -21.15,64.12 C 2.13,-102.8 0,-59.48 0,0 Z m 212.88,-44.59 v 89.15 c 0,54.72 -3.5,88.49 -10.43,101.47 -6.92,12.93 -19.48,19.34 -37.63,19.34 -17.75,0 -30.07,-6.56 -36.92,-19.85 -6.86,-13.28 -10.29,-46.91 -10.29,-100.96 v -89.15 c 0,-53.39 3.43,-86.95 10.29,-100.46 6.85,-13.62 19.4,-20.41 37.56,-20.41 17.95,0 30.35,6.64 37.14,19.92 6.86,13.19 10.28,46.9 10.28,100.95 z"
         style="fill:#2c2e35;fill-opacity:1;fill-rule:evenodd;stroke:none"
         id="path80" />
    </g>
    <g
       id="g82"
       transform="translate(9539.7834,2244.4087)">
      <path
         d="m 0,0 v 493.73 h 120.14 l 95.87,-304.58 c -3.86,51.29 -6.64,95.5 -8.46,132.7 -1.81,37.23 -2.71,68.65 -2.7,94.25 v 77.63 H 307.79 V 0 H 187.19 L 90.68,313.83 c 4.3,-40.78 7.59,-80.38 9.78,-118.76 2.25,-38.36 3.43,-75.59 3.43,-111.69 l 0,-83.38 z"
         style="fill:#2c2e35;fill-opacity:1;fill-rule:evenodd;stroke:none"
         id="path84" />
    </g>
  </g>
</svg>
